<?xml version="1.0" encoding="utf-8"?>
<!-- Uploaded to: SVG Repo, www.svgrepo.com, Generator: SVG Repo Mixer Tools -->
<svg width="800px" height="800px" viewBox="0 0 1024 1024" class="icon"  version="1.1" xmlns="http://www.w3.org/2000/svg"><path d="M845 208l-13-48-13 48-48 13 48 13 13 48 13-48 48-13-48-13zM871 306l4-19 19-5-19-4-4-19-4 19-19 4 19 5 4 19zM223 748l-25 6 25 6 6 25 6-25 25-6-25-6-6-25-6 25z" fill="#FDCD60" /><path d="M208 246m-9 0a9 9 0 1 0 18 0 9 9 0 1 0-18 0Z" fill="#5546CB" /><path d="M889 803a25 25 0 1 0 25 25 25 25 0 0 0-25-25z m0 36a10 10 0 1 1 10-10 10 10 0 0 1-10 10z" fill="#5546CB" /><path d="M139 624l-19 5 19 4 4 19 5-19 19-4-19-5-5-19-4 19z" fill="#FDCD60" /><path d="M255.509 563.53l6.18-19.02 34.58 11.235-6.18 19.021zM349.088 592.401l6.18-19.02 34.581 11.235-6.18 19.021zM442.359 623.224l6.18-19.021 34.58 11.235-6.18 19.021zM162.239 532.708l6.18-19.021 34.58 11.236-6.18 19.02zM817.058 743.61l6.18-19.02 34.58 11.235-6.18 19.021zM723.787 713.788l6.18-19.02 34.581 11.235-6.18 19.021zM535.938 653.095l6.18-19.021 34.58 11.236-6.18 19.02zM629.208 683.917l6.18-19.021 34.58 11.236-6.18 19.02z" fill="#F97744" /><path d="M156 565a10 10 0 0 0 7 13l675 212h3a10 10 0 0 0 3-20L169 558a10 10 0 0 0-13 7z" fill="#5546CB" /><path d="M869 510h-1c-25 14-83 27-129 34s-72 9-99 9-31-1-42-3c-32-7-68-40-134-102l-68-63-34-30a18 18 0 0 0-12-4l-168 3v18l149 7a16 16 0 0 1 10 4l68 53 56 50 26 23c7 7 15 14 11 22a11 11 0 0 1-10 6h-4l-47-13c-51-15-145-42-258-73v17l488 165 12 2c31 7 112 26 171-2 21-10 34-23 38-40s-3-49-23-83z" fill="#FDCD60" /><path d="M375 341l34 30 68 63c61 57 98 91 124 97 56 12 216-14 256-37l-9-12c-13-18-30-37-49-57q-6 9-22 14c-13 5-31 8-50 11s-43 6-62 6-36-2-53-8c-33-12-60-37-89-71h-1c-32-37-50-58-52-74l-288 29v2l168-3a38 38 0 0 1 25 10z m392 126c6-17 25-18 34-19h3a10 10 0 0 1 11 5 193 193 0 0 1 8 18c3 7-1 15-10 20a58 58 0 0 1-24 6c-6 0-11-1-13-5s-12-17-9-25z m-87 3h1c2 0 39-11 52 10 5 9 7 16 5 21s-5 7-11 9h-3c-6 2-15 4-23 4a28 28 0 0 1-14-3c-5-3-9-8-11-15-6-19 1-25 4-26z" fill="#FDCD60" /><path d="M911 599c9-34-6-77-45-130-26-36-68-77-106-112l-46-45c-32-28-60-42-75-42s-41-2-63 0l-24 2-390 42v168l504 170h3l9 2c19 4 58 13 99 13 28 0 58-4 84-16s44-29 50-52zM491 300h1l61-6c30-3 37-4 84-4 10 0 37 14 63 37s55 52 84 85c-2 3-10 6-13 7s-29 7-46 10c-50 8-80 8-105-1s-48-27-81-65h-1c-13-15-26-30-35-42s-12-17-13-20z m-309 32l289-31c3 16 21 37 52 74h1c29 34 56 59 89 71 17 6 34 8 53 8s39-2 62-6 36-6 50-11 18-9 22-14c19 19 36 39 49 57l9 12c-40 23-200 49-256 37-27-6-64-40-124-97l-68-63-34-30a38 38 0 0 0-26-9l-168 3z m672 302c-59 27-140 9-171 2l-12-2-489-166v-17c113 31 207 58 258 73l47 13h4a11 11 0 0 0 10-6c4-8-3-16-11-22l-26-23-56-50-68-53a16 16 0 0 0-10-4l-149-7v-18l168-3a18 18 0 0 1 12 4l34 30 68 63c66 61 102 95 134 102 11 2 25 3 42 3s62-3 99-9 104-19 129-34h1c20 34 28 63 22 84s-15 30-36 40zM183 431v-25a89 89 0 0 1 2-13h1l143 7 68 53 56 50 8 7-14-4c-53-16-149-44-264-75z" fill="#5546CB" /><path d="M538 362h1c33 38 56 56 81 65s55 9 105 1c18-3 34-6 46-10s11-4 13-7c-29-33-67-70-84-85s-53-37-63-37c-48 1-55 1-84 4l-61 6h-1c1 3 4 9 13 20s21 28 34 43z" fill="#FFFFFF" /><path d="M460 509l-8-7-56-50-68-53-143-7h-1a89 89 0 0 0-2 13v25c116 32 211 59 263 74z" fill="#AFBCF3" /><path d="M693 501c7 4 20 0 27-2h6s1-3-4-10-13-7-21-7l-14 2c0 2-1 5 1 13s3 3 5 4z" fill="#F97744" /><path d="M686 512a28 28 0 0 0 14 3c8 0 17-3 23-4h3c5-1 9-5 11-9s1-13-5-21c-13-21-51-11-52-10h-1c-3 2-10 7-4 27 2 6 6 11 11 14z m0-31l14-2c7 0 17 1 21 7s4 10 4 10h-6c-7 2-20 6-27 2s-4-2-5-7-1-8 0-10z" fill="#5546CB" /><path d="M806 480l5-4-7-15h-2c-10 1-20 2-23 11s0 3 6 12 13 0 21-4z" fill="#F97744" /><path d="M789 497a58 58 0 0 0 24-6c9-5 13-12 10-20a193 193 0 0 0-8-18 10 10 0 0 0-11-5h-3c-9 1-28 2-34 19s2 16 8 25 8 5 14 5z m-9-25c3-8 12-10 23-11h2l7 15-5 4c-7 4-17 5-20 4s-8-12-8-12z" fill="#5546CB" /></svg>