<?xml version="1.0" encoding="utf-8"?>
<!-- Uploaded to: SVG Repo, www.svgrepo.com, Generator: SVG Repo Mixer Tools -->
<svg width="800px" height="800px" viewBox="0 -3.99 48.891 48.891" xmlns="http://www.w3.org/2000/svg">
  <g id="send_money" data-name="send money" transform="translate(-321.837 -134.263)">
    <path id="Path_48" data-name="Path 48" d="M334.31,150.727H322.337v23.946H334.31V150.727Z" fill="#ffe959" fill-rule="evenodd"/>
    <path id="Path_49" data-name="Path 49" d="M334.31,170.681a3.991,3.991,0,0,0-7.982,0v3.991h7.982v-3.991Z" fill="#e23a44" fill-rule="evenodd"/>
    <path id="Path_50" data-name="Path 50" d="M370.228,162.785a3.786,3.786,0,0,0-5.883-3.149c-3.027,2.022-6.09,4.061-6.09,4.061h-7.982a3.991,3.991,0,0,0,0-7.982h-7.982a2,2,0,0,0-1.995-1.995H336.3a1.993,1.993,0,0,0-1.993,1.993v15.966h23.945l11.219-7.479a1.688,1.688,0,0,0,.754-1.409v-.006Z" fill="#eeedec" fill-rule="evenodd"/>
    <path id="Path_51" data-name="Path 51" d="M370.228,134.763H338.3v15.964h31.927V134.763Z" fill="#56ae89" fill-rule="evenodd"/>
    <path id="Path_52" data-name="Path 52" d="M343.622,150.725a5.32,5.32,0,0,0-5.32-5.32h0v5.322h5.322v0Z" fill="#f2f7fd" fill-rule="evenodd"/>
    <path id="Path_53" data-name="Path 53" d="M343.622,134.765a5.32,5.32,0,0,1-5.32,5.32h0v-5.322h5.322v0Z" fill="#f2f7fd" fill-rule="evenodd"/>
    <path id="Path_54" data-name="Path 54" d="M364.906,150.725a5.321,5.321,0,0,1,5.32-5.32h0v5.322h-5.322v0Z" fill="#f2f7fd" fill-rule="evenodd"/>
    <path id="Path_55" data-name="Path 55" d="M364.906,134.765a5.32,5.32,0,0,0,5.32,5.32h0v-5.322h-5.322v0Z" fill="#f2f7fd" fill-rule="evenodd"/>
    <path id="Path_56" data-name="Path 56" d="M354.264,145.94v.8m0-7.982v.8m-1.6,4.789a1.6,1.6,0,1,0,1.6-1.6m1.6-1.6a1.6,1.6,0,1,0-1.6,1.6m10.642-7.98a5.32,5.32,0,0,0,5.32,5.32h0v-5.322h-5.322v0Zm0,15.96a5.321,5.321,0,0,1,5.32-5.32h0v5.322h-5.322v0Zm-21.284-15.96a5.32,5.32,0,0,1-5.32,5.32h0v-5.322h5.322v0Zm0,15.96a5.32,5.32,0,0,0-5.32-5.32h0v5.322h5.322v0Zm26.606-15.962H338.3v15.964h31.928V134.763Zm0,28.022a3.786,3.786,0,0,0-5.883-3.149c-3.027,2.022-6.09,4.061-6.09,4.061h-7.982a3.991,3.991,0,0,0,0-7.982h-7.982a2,2,0,0,0-1.995-1.995H336.3a2,2,0,0,0-1.995,1.995v15.964h23.945l11.219-7.479a1.688,1.688,0,0,0,.754-1.409v-.006Zm-35.918,7.9a3.991,3.991,0,0,0-7.982,0v3.991h7.982v-3.991Zm-11.973-3.991v7.982H334.31V150.727H322.337v7.982m0,3.492v1" fill="none" stroke="#0f0e0b" stroke-linecap="round" stroke-linejoin="round" stroke-width="1"/>
  </g>
</svg>